<?xml version='1.0' encoding='utf-8'?>
<svg xmlns="http://www.w3.org/2000/svg" width="1e3" height="1e3" version="1.1" viewBox="0 0 264.58 264.58"> <rect x="-5.6843e-14" width="264.58" height="264.58" fill="#f7f7f7" style="paint-order:stroke markers fill"/> <path d="m83.647 66.151h77.721l27.837 34.072v98.209h-105.56z" fill="#fff"/> <path d="m82.848 65.484v133.61h107.16v-98.557l-28.884-35.057zm1.3229 1.3229h76.95v33.734h27.561v97.234h-104.51z" color="#000000" fill="#badaf2" stroke-width=".26458" style="-inkscape-stroke:none;paint-order:fill markers stroke"/> <rect x="71.586" y="78.322" width="77.611" height="26.458" rx="1.3229" ry="1.3229" fill="#317fbf" style="paint-order:fill markers stroke"/> <g fill="#fff" stroke-width=".26458" aria-label="CSS"> <path d="m96.566 97.88q-1.4211 0-2.4064-0.49265-0.96635-0.5116-1.5727-1.3832-0.60634-0.89056-0.87161-2.0085-0.26527-1.1369-0.26527-2.3875t0.26527-2.3875q0.28422-1.1558 0.89056-2.0464 0.60634-0.90951 1.5727-1.4211 0.9853-0.53054 2.4064-0.53054 2.2927 0 3.3728 1.0421 1.08 1.0232 1.1369 2.5959h-1.8948q-0.0379-1.0611-0.64423-1.6106-0.60634-0.54949-1.9706-0.54949-3.1833 0-3.1833 4.9075 0 2.5769 0.79582 3.6759t2.3496 1.099q1.1558 0 1.8759-0.53054 0.73897-0.54949 0.79582-1.6674h1.9516q-0.0379 1.0611-0.62528 1.8948-0.58739 0.83371-1.6106 1.3264-1.0232 0.4737-2.3685 0.4737z"/> <path d="m110.03 97.88q-1.1748 0-2.1411-0.45475-0.96635-0.4737-1.5348-1.3453-0.56844-0.89056-0.56844-2.1411h1.9516q0 1.0421 0.62529 1.6864 0.64423 0.64423 1.6674 0.64423 0.49265 0 1.0422-0.05684 0.54949-0.07579 1.0232-0.26527 0.49265-0.18948 0.79582-0.56844 0.32211-0.37896 0.32211-1.0042 0-0.75792-0.3979-1.1748-0.37896-0.4358-1.0232-0.64423-0.64423-0.22738-1.4211-0.36001-0.75792-0.15158-1.5348-0.32212-0.75793-0.18948-1.4022-0.53054-0.64423-0.36001-1.0421-0.9853-0.37896-0.64423-0.37896-1.7053 0-0.83371 0.37896-1.459 0.37896-0.64423 1.0042-1.08 0.64424-0.4358 1.3832-0.66318 0.75792-0.22738 1.478-0.22738 1.1179 0 2.1032 0.34106 1.0042 0.32212 1.6295 1.0611 0.64424 0.73897 0.64424 1.9706h-1.9138q0-0.73897-0.37897-1.1369-0.36001-0.39791-0.9474-0.53054-0.56844-0.13264-1.1937-0.13264-0.92846 0-1.6295 0.41686-0.68213 0.39791-0.68213 1.4022 0 0.64423 0.37896 1.0232 0.39791 0.36001 1.0422 0.56844 0.64423 0.20843 1.4022 0.37896 0.77687 0.15158 1.5348 0.36001t1.4022 0.58739 1.0232 1.0232q0.39791 0.64423 0.39791 1.6674 0 1.0232-0.45475 1.7432-0.45475 0.70108-1.1937 1.1369-0.73897 0.41686-1.6295 0.58739-0.89056 0.18948-1.7622 0.18948z"/> <path d="m123.93 97.88q-1.1748 0-2.1411-0.45475-0.96635-0.4737-1.5348-1.3453-0.56844-0.89056-0.56844-2.1411h1.9516q0 1.0421 0.62528 1.6864 0.64424 0.64423 1.6674 0.64423 0.49265 0 1.0421-0.05684 0.5495-0.07579 1.0232-0.26527 0.49265-0.18948 0.79582-0.56844 0.32211-0.37896 0.32211-1.0042 0-0.75792-0.39791-1.1748-0.37896-0.4358-1.0232-0.64423-0.64423-0.22738-1.4211-0.36001-0.75793-0.15158-1.5348-0.32212-0.75792-0.18948-1.4022-0.53054-0.64423-0.36001-1.0421-0.9853-0.37896-0.64423-0.37896-1.7053 0-0.83371 0.37896-1.459 0.37896-0.64423 1.0042-1.08 0.64424-0.4358 1.3832-0.66318 0.75792-0.22738 1.478-0.22738 1.1179 0 2.1032 0.34106 1.0042 0.32212 1.6295 1.0611 0.64424 0.73897 0.64424 1.9706h-1.9138q0-0.73897-0.37896-1.1369-0.36001-0.39791-0.9474-0.53054-0.56844-0.13264-1.1937-0.13264-0.92845 0-1.6295 0.41686-0.68213 0.39791-0.68213 1.4022 0 0.64423 0.37896 1.0232 0.39791 0.36001 1.0422 0.56844 0.64423 0.20843 1.4022 0.37896 0.77687 0.15158 1.5348 0.36001t1.4022 0.58739 1.0232 1.0232q0.39791 0.64423 0.39791 1.6674 0 1.0232-0.45475 1.7432-0.45475 0.70108-1.1937 1.1369-0.73897 0.41686-1.6295 0.58739-0.89056 0.18948-1.7622 0.18948z"/> </g> <g fill="#317fbf" stroke-width=".26458" aria-label="{"> <path d="m128.49 169.22v3.2246h-1.3884q-5.5759 0-7.4793-1.6571-1.881-1.6571-1.881-6.606v-5.352q0-3.3814-1.2092-4.6802t-4.389-1.2988h-1.366v-3.2022h1.366q3.2022 0 4.389-1.2764 1.2092-1.2988 1.2092-4.6354v-5.3744q0-4.9489 1.881-6.5836 1.9034-1.6571 7.4793-1.6571h1.3884v3.2022h-1.5227q-3.1574 0-4.1203 0.9853t-0.9629 4.1427v5.5535q0 3.5157-1.0301 5.1056-1.0077 1.5899-3.4709 2.1497 2.4856 0.60461 3.4933 2.1945t1.0077 5.0832v5.5535q0 3.1574 0.9629 4.1427 0.96291 0.98529 4.1203 0.98529z"/> </g> <g fill="#317fbf" stroke-width=".26458" aria-label="}"> <path d="m144.36 169.22h1.5675q3.135 0 4.0755-0.9629 0.96291-0.9629 0.96291-4.1651v-5.5535q0-3.4933 1.0077-5.0832t3.4933-2.1945q-2.4856-0.55983-3.4933-2.1497t-1.0077-5.1056v-5.5535q0-3.1798-0.96291-4.1427-0.94051-0.9853-4.0755-0.9853h-1.5675v-3.2022h1.4108q5.5759 0 7.4345 1.6571 1.881 1.6347 1.881 6.5836v5.3744q0 3.3366 1.2092 4.6354 1.2092 1.2764 4.389 1.2764h1.3884v3.2022h-1.3884q-3.1798 0-4.389 1.2988t-1.2092 4.6802v5.352q0 4.9489-1.881 6.606-1.8586 1.6571-7.4345 1.6571h-1.4108z"/> </g> </svg>