<?xml version='1.0' encoding='utf-8'?>
<svg xmlns="http://www.w3.org/2000/svg" enable-background="new 0 0 600 600" version="1.1" viewBox="0 0 600 600"> <style type="text/css">.st0{fill:url(#b);} .st1{fill:url(#a);stroke:#FFFFFF;stroke-width:2;stroke-miterlimit:10;} .st2{fill:#E52528;} .st3{fill:#F3E600;} .st4{fill:#66B32E;} .st5{fill:#D4155B;} .st6{fill:#00AA9E;} .st7{fill:#FFFFFF;}</style> <linearGradient id="b" x1="435.1" x2="164.9" y1="534" y2="66.002" gradientUnits="userSpaceOnUse"> <stop stop-color="#808081" offset="0"/> <stop stop-color="#333" offset=".7044"/> </linearGradient> <path class="st0" d="m537 473h-474c-7.7 0-14-6.3-14-14v-317.9c0-7.7 6.3-14 14-14h474c7.7 0 14 6.3 14 14v317.9c0.1 7.7-6.2 14-14 14z"/> <linearGradient id="a" x1="362.77" x2="237.23" y1="266.27" y2="48.838" gradientUnits="userSpaceOnUse"> <stop stop-color="#808081" offset="0"/> <stop stop-color="#333" offset=".7044"/> </linearGradient> <line class="st1" x1="48.9" x2="551.1" y1="157.6" y2="157.6"/> <circle class="st2" cx="69.6" cy="142.6" r="6.9"/> <circle class="st3" cx="91" cy="142.6" r="6.9"/> <circle class="st4" cx="112.5" cy="142.6" r="6.9"/> <path class="st5" d="m71.5 237.2v-2.6l13.2-8.8v3.3l-10.2 6.7v0.1l10.2 6.7v3.3l-13.2-8.7z"/> <path class="st5" d="m90.3 239c0-5.6 3.7-9 7.6-9 2 0 3.5 0.8 4.9 2.1h0.1l-0.2-3v-6.4h3.5v24.8h-2.9l-0.3-2.1c-1.4 1.4-3.3 2.5-5.4 2.5-4.4 0.1-7.3-3.2-7.3-8.9zm12.4 3.8v-8.1c-1.4-1.3-2.7-1.8-4-1.8-2.7 0-4.9 2.3-4.9 6.1 0 3.9 1.7 6.1 4.6 6.1 1.6 0 3-0.8 4.3-2.3z"/> <path class="st5" d="m120 233.2h-7.6v-2.8h11.1v17.1h-3.5v-14.3zm-1.1-8.6c0-1.5 1.1-2.5 2.6-2.5s2.6 1 2.6 2.5-1.1 2.5-2.6 2.5-2.6-1-2.6-2.5z"/> <path class="st5" d="m131.9 230.4h3.5l3.6 9.3 1.8 5.1h0.1c0.6-1.7 1.1-3.4 1.8-5.1l3.6-9.3h3.3l-6.9 17.1h-3.9l-6.9-17.1z"/> <path class="st6" d="m175 239c0-5.7 4.4-9 9.6-9 2.8 0 4.9 1.1 6.3 2.5l-1.7 2.2c-1.4-1.1-2.8-1.8-4.4-1.8-3.7 0-6.2 2.4-6.2 6.1s2.5 6.1 6.1 6.1c2 0 3.7-0.9 5.1-2l1.5 2.2c-1.9 1.7-4.4 2.6-6.9 2.6-5.4 0.1-9.4-3.2-9.4-8.9z"/> <path class="st6" d="m201.5 241.6v-16h-5.9v-2.8h9.4v19c0 2.4 1.3 3.3 3.2 3.3 0.9 0 1.9-0.2 3.1-0.7l0.8 2.6c-1.6 0.6-2.8 1-4.7 1-3.8 0-5.9-2.3-5.9-6.4z"/> <path class="st6" d="m216.9 243c0-3.8 3.5-5.7 12.1-6.4-0.1-2.1-1.3-3.8-4.3-3.8-2.1 0-4.1 0.9-5.8 1.9l-1.3-2.3c1.9-1.2 4.8-2.4 7.7-2.4 4.7 0 7.2 2.7 7.2 7.2v10.3h-2.9l-0.3-2.2h-0.1c-1.8 1.4-4.2 2.6-6.5 2.6-3.3 0.1-5.8-1.9-5.8-4.9zm12.1-0.1v-4c-6.7 0.5-8.7 1.8-8.7 3.9 0 1.7 1.5 2.4 3.4 2.4 1.8 0 3.6-0.9 5.3-2.3z"/> <path class="st6" d="m237.6 245.3 1.6-2.3c2 1.4 4.3 2.2 7.3 2.2 2.6 0 3.9-1 3.9-2.3 0-1.2-0.7-2-5-2.9-4.5-0.9-6.6-2.5-6.6-5.1 0-2.9 2.6-5 7.3-5 2.7 0 5.3 1.1 7 2.2l-1.6 2.2c-1.6-1.1-3.6-1.8-5.7-1.8-2.5 0-3.5 1-3.5 2.2 0 1.3 1.4 1.9 4.7 2.6 5.6 1.2 7 2.7 7 5.3 0 2.9-2.8 5.2-7.8 5.2-3.5 0.2-6.5-1-8.6-2.5z"/> <path class="st6" d="m258.6 245.3 1.6-2.3c2 1.4 4.3 2.2 7.3 2.2 2.6 0 3.9-1 3.9-2.3 0-1.2-0.7-2-5-2.9-4.5-0.9-6.6-2.5-6.6-5.1 0-2.9 2.6-5 7.3-5 2.7 0 5.3 1.1 7 2.2l-1.6 2.2c-1.6-1.1-3.6-1.8-5.7-1.8-2.5 0-3.5 1-3.5 2.2 0 1.3 1.4 1.9 4.7 2.6 5.6 1.2 7 2.7 7 5.3 0 2.9-2.8 5.2-7.8 5.2-3.5 0.2-6.5-1-8.6-2.5z"/> <path class="st6" d="m280.1 230.9h15.3v2.5h-15.3v-2.5zm0 7.7h15.3v2.5h-15.3v-2.5z"/> <path class="st6" d="m301.2 231.3c0-3.6 1.9-6.5 5.3-8.2l1 2c-2.4 1.3-3.7 3.2-3.7 5.9l0.5 2.9-2-2.5c0.6-0.6 1.5-1.1 2.3-1.1 1.5 0 2.6 1.1 2.6 2.7 0 1.7-1.1 2.9-2.8 2.9-1.8 0-3.2-1.7-3.2-4.6zm8.4 0c0-3.6 1.9-6.5 5.3-8.2l1 2c-2.4 1.3-3.7 3.2-3.7 5.9l0.5 2.9-2-2.5c0.6-0.6 1.5-1.1 2.3-1.1 1.5 0 2.6 1.1 2.6 2.7 0 1.7-1.1 2.9-2.8 2.9-1.9 0-3.2-1.7-3.2-4.6z"/> <path class="st6" d="m322 239c0-5.7 4.4-9 9.6-9 2.8 0 4.9 1.1 6.3 2.5l-1.7 2.2c-1.4-1.1-2.8-1.8-4.4-1.8-3.7 0-6.2 2.4-6.2 6.1s2.5 6.1 6.1 6.1c2 0 3.7-0.9 5.1-2l1.5 2.2c-1.9 1.7-4.4 2.6-6.9 2.6-5.4 0.1-9.4-3.2-9.4-8.9z"/> <path class="st6" d="m342.3 239c0-5.7 4-9 8.5-9s8.5 3.3 8.5 9-4 8.9-8.5 8.9-8.5-3.2-8.5-8.9zm13.4 0c0-3.7-1.9-6.1-4.9-6.1s-4.9 2.4-4.9 6.1 1.9 6.1 4.9 6.1 4.9-2.4 4.9-6.1z"/> <path class="st6" d="m363.3 239c0-5.6 3.7-9 7.6-9 2 0 3.5 0.8 4.9 2.1h0.1l-0.2-3v-6.4h3.5v24.8h-2.9l-0.3-2.1c-1.4 1.4-3.3 2.5-5.4 2.5-4.4 0.1-7.3-3.2-7.3-8.9zm12.4 3.8v-8.1c-1.4-1.3-2.7-1.8-4-1.8-2.7 0-4.8 2.3-4.8 6.1 0 3.9 1.7 6.1 4.6 6.1 1.5 0 2.9-0.8 4.2-2.3z"/> <path class="st6" d="m384.6 239c0-5.6 4.2-8.9 8.8-8.9 5 0 7.9 3.3 7.9 8.1 0 0.7-0.1 1.4-0.2 1.9h-14.1v-2.6h11.9l-0.8 0.9c0-3.7-1.8-5.6-4.7-5.6-3 0-5.4 2.2-5.4 6.2 0 4.2 2.6 6.3 6.3 6.3 1.9 0 3.5-0.6 5-1.5l1.2 2.2c-1.8 1.2-4 2-6.7 2-5.1 0-9.2-3.3-9.2-9z"/> <path class="st6" d="m406.2 231.3c0-3.6 1.9-6.5 5.3-8.2l1 2c-2.4 1.3-3.7 3.2-3.7 5.9l0.5 2.9-2-2.5c0.6-0.6 1.5-1.1 2.3-1.1 1.5 0 2.6 1.1 2.6 2.7 0 1.7-1.1 2.9-2.8 2.9-1.8 0-3.2-1.7-3.2-4.6zm8.4 0c0-3.6 1.9-6.5 5.3-8.2l1 2c-2.4 1.3-3.7 3.2-3.7 5.9l0.5 2.9-2-2.5c0.6-0.6 1.5-1.1 2.3-1.1 1.5 0 2.6 1.1 2.6 2.7 0 1.7-1.1 2.9-2.8 2.9-1.9 0-3.2-1.7-3.2-4.6z"/> <path class="st5" d="M428,242.7l10.2-6.7v-0.1l-10.2-6.7v-3.3l13.2,8.8v2.6L428,246V242.7z"/> <path class="st5" d="m107.5 279.2v-2.6l13.2-8.8v3.3l-10.2 6.7v0.1l10.2 6.7v3.3l-13.2-8.7z"/> <path class="st5" d="m127.4 264.7h3.5v6.6l-0.2 3.8h0.1c1.6-1.7 3.6-3.1 6.2-3.1 4 0 5.8 2.5 5.8 6.9v10.6h-3.5v-10.2c0-3-1-4.4-3.5-4.4-1.9 0-3.1 0.9-4.9 2.7v11.8h-3.5v-24.7z"/> <path class="st5" d="m148.5 286.7h6.3v-15.5h-5v-2.2c2.7-0.4 4.4-0.9 5.9-1.7h2.6v19.4h5.6v2.9h-15.4v-2.9z"/> <path class="st5" d="M170,284.7l10.2-6.7v-0.1l-10.2-6.7v-3.3l13.2,8.8v2.6L170,288V284.7z"/> <path class="st7" d="m189.9 266.6h3.5v9.4h8.7v-9.4h3.5v22.9h-3.5v-10.5h-8.7v10.5h-3.5v-22.9z"/> <path class="st7" d="m210.6 281c0-5.6 4.2-8.9 8.8-8.9 5 0 7.9 3.3 7.9 8.1 0 0.7-0.1 1.4-0.2 1.9h-14.1v-2.6h11.9l-0.8 0.9c0-3.7-1.8-5.6-4.7-5.6-3 0-5.4 2.2-5.4 6.2 0 4.2 2.6 6.3 6.3 6.3 1.9 0 3.5-0.6 5-1.5l1.2 2.2c-1.8 1.2-4 2-6.7 2-5.1 0-9.2-3.3-9.2-9z"/> <path class="st7" d="m237.5 283.6v-16h-5.9v-2.8h9.4v19c0 2.4 1.3 3.3 3.2 3.3 0.9 0 1.9-0.2 3.1-0.7l0.8 2.6c-1.6 0.6-2.8 1-4.7 1-3.8 0-5.9-2.3-5.9-6.4z"/> <path class="st7" d="m258.5 283.6v-16h-5.9v-2.8h9.4v19c0 2.4 1.3 3.3 3.2 3.3 0.9 0 1.9-0.2 3.1-0.7l0.8 2.6c-1.6 0.6-2.8 1-4.7 1-3.8 0-5.9-2.3-5.9-6.4z"/> <path class="st7" d="m273.3 281c0-5.7 4-9 8.5-9s8.5 3.3 8.5 9-4 8.9-8.5 8.9c-4.5 0.1-8.5-3.2-8.5-8.9zm13.4 0c0-3.7-1.9-6.1-4.9-6.1s-4.9 2.4-4.9 6.1 1.9 6.1 4.9 6.1 4.9-2.4 4.9-6.1z"/> <path class="st7" d="m313.6 266.6h3.8l1.4 13.8c0.2 1.9 0.3 3.2 0.4 5.4h0.1c0.4-2.2 0.7-3.5 1.1-5.4l2.1-8h2.9l2 8c0.5 1.9 0.7 3.2 1.1 5.4h0.1c0.1-2.2 0.2-3.5 0.3-5.4l1.4-13.9h3.6l-3.2 23h-4.1l-2-8.7c-0.3-1.4-0.6-2.8-0.8-4.2h-0.1c-0.2 1.4-0.4 2.8-0.8 4.2l-2 8.7h-4l-3.3-22.9z"/> <path class="st7" d="m336.3 281c0-5.7 4-9 8.5-9s8.5 3.3 8.5 9-4 8.9-8.5 8.9-8.5-3.2-8.5-8.9zm13.4 0c0-3.7-1.9-6.1-4.9-6.1s-4.9 2.4-4.9 6.1 1.9 6.1 4.9 6.1 4.9-2.4 4.9-6.1z"/> <path class="st7" d="m360.1 272.4h2.9l0.3 4h0.1c1.8-2.8 4.4-4.4 7.5-4.4 1.3 0 2.3 0.2 3.4 0.7l-0.8 3c-1.2-0.4-1.8-0.5-3.1-0.5-2.5 0-4.8 1.2-6.7 4.7v9.7h-3.5v-17.2z"/> <path class="st7" d="m384.5 283.6v-16h-5.9v-2.8h9.4v19c0 2.4 1.3 3.3 3.2 3.3 0.9 0 1.9-0.2 3.1-0.7l0.8 2.6c-1.6 0.6-2.8 1-4.7 1-3.8 0-5.9-2.3-5.9-6.4z"/> <path class="st7" d="m399.3 281c0-5.6 3.7-9 7.6-9 2 0 3.5 0.8 4.9 2.1h0.1l-0.2-3v-6.4h3.5v24.8h-2.9l-0.3-2.1c-1.4 1.4-3.3 2.5-5.4 2.5-4.4 0.1-7.3-3.2-7.3-8.9zm12.4 3.8v-8.1c-1.4-1.3-2.7-1.8-4-1.8-2.7 0-4.8 2.3-4.8 6.1 0 3.9 1.7 6.1 4.6 6.1 1.5 0 2.9-0.8 4.2-2.3z"/> <path class="st5" d="m422.5 279.2v-2.6l13.2-8.8v3.3l-10.2 6.7v0.1l10.2 6.7v3.3l-13.2-8.7z"/> <path class="st5" d="m454 264.7h3l-11.5 30.5h-3l11.5-30.5z"/> <path class="st5" d="m463.4 264.7h3.5v6.6l-0.2 3.8h0.1c1.6-1.7 3.6-3.1 6.2-3.1 4 0 5.8 2.5 5.8 6.9v10.6h-3.5v-10.2c0-3-1-4.4-3.5-4.4-1.9 0-3.1 0.9-4.9 2.7v11.8h-3.5v-24.7z"/> <path class="st5" d="m484.5 286.7h6.3v-15.5h-5v-2.2c2.7-0.4 4.4-0.9 5.9-1.7h2.6v19.4h5.6v2.9h-15.4v-2.9z"/> <path class="st5" d="M506,284.7l10.2-6.7v-0.1l-10.2-6.7v-3.3l13.2,8.8v2.6L506,288V284.7z"/> <path class="st5" d="m107.5 321.2v-2.6l13.2-8.8v3.3l-10.2 6.7v0.1l10.2 6.7v3.3l-13.2-8.7z"/> <path class="st5" d="m127.4 306.7h3.5v6.6l-0.2 3.8h0.1c1.6-1.7 3.6-3.1 6.2-3.1 4 0 5.8 2.5 5.8 6.9v10.6h-3.5v-10.2c0-3-1-4.4-3.5-4.4-1.9 0-3.1 0.9-4.9 2.7v11.8h-3.5v-24.7z"/> <path class="st5" d="m150.1 314.4h2.9l0.3 4h0.1c1.8-2.8 4.4-4.4 7.5-4.4 1.3 0 2.3 0.2 3.4 0.7l-0.8 3c-1.2-0.4-1.8-0.5-3.1-0.5-2.5 0-4.8 1.2-6.7 4.7v9.7h-3.5v-17.2z"/> <path class="st5" d="M170,326.7l10.2-6.7v-0.1l-10.2-6.7v-3.3l13.2,8.8v2.6L170,330V326.7z"/> <path class="st5" d="m71.5 363.2v-2.6l13.2-8.8v3.3l-10.2 6.7v0.1l10.2 6.7v3.3l-13.2-8.7z"/> <path class="st5" d="m103 348.7h3l-11.5 30.5h-3l11.5-30.5z"/> <path class="st5" d="m111.3 365c0-5.6 3.7-9 7.6-9 2 0 3.5 0.8 4.9 2.1h0.1l-0.2-3v-6.4h3.5v24.8h-2.9l-0.3-2.1c-1.4 1.4-3.3 2.5-5.4 2.5-4.4 0.1-7.3-3.2-7.3-8.9zm12.4 3.8v-8.1c-1.4-1.3-2.7-1.8-4-1.8-2.7 0-4.9 2.3-4.9 6.1 0 3.9 1.7 6.1 4.6 6.1 1.6 0 3-0.8 4.3-2.3z"/> <path class="st5" d="m141 359.2h-7.6v-2.8h11.1v17.1h-3.5v-14.3zm-1.1-8.6c0-1.5 1.1-2.5 2.6-2.5s2.6 1 2.6 2.5-1.1 2.5-2.6 2.5-2.6-1-2.6-2.5z"/> <path class="st5" d="m152.9 356.4h3.5l3.6 9.3 1.8 5.1h0.1c0.6-1.7 1.1-3.4 1.8-5.1l3.6-9.3h3.3l-6.9 17.1h-3.9l-6.9-17.1z"/> <path class="st5" d="M176,368.7l10.2-6.7v-0.1l-10.2-6.7v-3.3l13.2,8.8v2.6L176,372V368.7z"/> </svg>